# Blender v2.82 (sub 7) OBJ File: ''
# www.blender.org
mtllib cow_0.25.mtl
o cow
v 277.142792 369.639252 14.503349
v 368.817871 555.421570 211.253494
v 265.512665 771.153503 148.547607
v 205.499496 507.201813 185.949997
v -358.076660 464.512024 -93.432274
v -342.894592 442.817810 -153.824158
v -430.732208 312.456665 -97.132019
v -191.804764 311.735260 8.499081
v 460.691772 422.409668 100.321564
v 391.983124 72.767723 95.633026
v 592.576843 837.333252 15.712538
v -135.585388 456.399689 162.697784
v -13.068715 330.671387 3.047774
v -346.975372 55.677258 90.675728
v -383.593170 32.466293 92.078346
v -349.423187 296.353546 50.702145
v -151.499115 427.792328 -92.977875
v -130.278900 457.429474 -164.205292
v -123.027817 844.661194 -131.046982
v 989.760498 691.929443 15.044106
v 867.676392 786.566772 69.600754
v 741.853638 844.984314 -104.838638
v -315.222260 326.569672 36.811157
v -175.563232 428.428772 96.355934
v -382.611847 487.024048 70.569115
v 3.046949 858.872620 93.347527
v 344.151611 893.938843 4.778766
v 938.939941 637.578003 57.635838
v -388.129791 355.199005 59.424007
v -369.411865 403.574829 128.890472
v 398.386871 113.082924 -95.010834
v 391.632050 96.863396 -68.448639
v 395.427856 27.639385 -92.784027
v 949.974304 623.311340 -20.793743
v 711.426392 620.979248 13.801479
v 775.221619 719.537476 -70.480766
v -343.624725 876.557861 -5.211205
v -345.384521 839.575806 151.922882
v -168.693817 846.035645 132.350357
v -263.863770 534.653748 204.257309
v 538.270996 601.039673 85.954681
v -361.535645 273.553864 108.095818
v 737.080139 824.501770 -74.162590
v 350.553986 190.307510 -86.529572
v 489.984253 555.868164 -156.952194
v 376.582245 555.184143 -199.371353
v 738.538330 845.429871 126.116447
v 330.677521 406.703217 105.456825
v 518.749084 411.700775 9.788937
v 451.714783 522.799072 183.772873
v 785.269348 918.196228 16.205374
v 873.020752 799.550903 -42.488384
v 394.783630 31.102844 97.787735
v 195.959808 477.987579 -164.478546
v 116.416893 376.233734 -126.619446
v 514.316467 704.196594 -105.854721
v -385.553345 398.441315 -19.024481
v -288.272034 303.505676 -50.949482
v -227.713120 424.779083 -114.917854
v 44.665535 442.075073 215.605423
v -30.378792 685.450195 202.083130
v 454.793732 409.074066 -83.025703
v 748.545654 795.758057 102.635910
v 190.036087 657.544373 -188.736771
v 488.073425 738.566467 115.950462
v -381.211151 32.561214 -102.135643
v -344.304901 55.675533 -100.322166
v 333.790802 405.762085 -95.814789
v -281.673462 434.667603 47.636490
v 356.555298 788.106506 -123.586746
v 778.688538 882.132385 67.226402
v 777.102478 859.240906 88.418785
v 351.334686 206.156662 68.608986
v -410.286957 685.791870 -5.011549
v -412.810303 767.900574 110.025841
v 42.520100 522.447388 -232.381958
v -449.270538 714.971619 29.137676
v -462.860809 721.351135 -22.303339
v -396.577087 534.404236 -94.489944
v -443.792419 305.839539 -7.682128
v 780.265686 882.132385 -45.456470
v 779.270264 859.242493 -66.681801
v 789.859192 903.710693 -119.031204
v -395.045197 791.454895 -122.896469
v -341.202423 839.556335 -161.538940
v -257.880402 534.501343 -211.568619
v -48.719795 723.274353 -194.103958
v -280.445892 435.241119 -55.221184
v -346.895905 296.924561 -60.645935
v 356.245728 196.784058 114.389984
v -358.465698 272.688110 -118.230148
v 786.226929 903.712402 141.051315
vt 0.746582 0.710205
vt 0.738770 0.668457
vt 0.717773 0.706787
vt 0.747643 0.718425
vt 0.720802 0.738651
vt 0.740616 0.795996
vt 0.752441 0.795532
vt 0.735352 0.796875
vt 0.752930 0.804199
vt 0.819336 0.575928
vt 0.814941 0.569824
vt 0.814453 0.583496
vt 0.814941 0.569824
vt 0.819336 0.575928
vt 0.817871 0.557617
vt 0.814453 0.583496
vt 0.824707 0.596436
vt 0.819336 0.575928
vt 0.841309 0.611084
vt 0.841797 0.604736
vt 0.824707 0.596436
vt 0.833496 0.555664
vt 0.826660 0.547607
vt 0.822754 0.563477
vt 0.845215 0.555420
vt 0.840332 0.546631
vt 0.833496 0.555664
vt 0.833496 0.555664
vt 0.848145 0.580078
vt 0.845215 0.555420
vt 0.852539 0.604492
vt 0.856445 0.611328
vt 0.862305 0.600098
vt 0.863770 0.590576
vt 0.855957 0.578369
vt 0.862305 0.600098
vt 0.855957 0.578369
vt 0.863770 0.590576
vt 0.862305 0.580078
vt 0.867676 0.591309
vt 0.875000 0.593018
vt 0.862305 0.580078
vt 0.866699 0.560059
vt 0.858887 0.560059
vt 0.867188 0.578369
vt 0.940918 0.618896
vt 0.922852 0.619629
vt 0.933594 0.629639
vt 0.904785 0.607422
vt 0.900879 0.614502
vt 0.915039 0.602783
vt 0.930664 0.536865
vt 0.920410 0.537354
vt 0.939453 0.545654
vt 0.923828 0.555664
vt 0.940430 0.554688
vt 0.923340 0.550049
vt 0.917480 0.566650
vt 0.922852 0.569092
vt 0.912109 0.556885
vt 0.901855 0.555908
vt 0.907227 0.562256
vt 0.912109 0.556885
vt 0.801270 0.421875
vt 0.814941 0.430664
vt 0.814453 0.416504
vt 0.814941 0.430664
vt 0.817871 0.442383
vt 0.819336 0.424316
vt 0.814453 0.416504
vt 0.819336 0.424316
vt 0.824707 0.403809
vt 0.822754 0.437012
vt 0.819336 0.424316
vt 0.817871 0.442383
vt 0.852539 0.395508
vt 0.841797 0.395508
vt 0.837891 0.414063
vt 0.840332 0.453613
vt 0.856445 0.450684
vt 0.845215 0.444824
vt 0.858887 0.440430
vt 0.845215 0.444824
vt 0.856445 0.450684
vt 0.863770 0.409668
vt 0.862305 0.400391
vt 0.855957 0.421875
vt 0.862305 0.419922
vt 0.858887 0.440430
vt 0.867188 0.421875
vt 0.867188 0.421875
vt 0.875000 0.407227
vt 0.862305 0.419922
vt 0.889160 0.438965
vt 0.874512 0.440430
vt 0.888184 0.451660
vt 0.801270 0.324707
vt 0.750036 0.331185
vt 0.795594 0.366787
vt 0.769043 0.394043
vt 0.767578 0.369629
vt 0.726074 0.412109
vt 0.746582 0.290039
vt 0.800648 0.266543
vt 0.752656 0.220450
vt 0.762244 0.222367
vt 0.792969 0.205566
vt 0.792969 0.205566
vt 0.787109 0.185547
vt 0.769531 0.208008
vt 0.720586 0.262411
vt 0.713027 0.438563
vt 0.710938 0.333008
vt 0.704590 0.373047
vt 0.658315 0.330576
vt 0.788574 0.431152
vt 0.791992 0.419922
vt 0.716797 0.441406
vt 0.757813 0.466309
vt 0.788574 0.442314
vt 0.757813 0.466309
vt 0.787598 0.477539
vt 0.788574 0.449707
vt 0.730469 0.476074
vt 0.822266 0.484375
vt 0.820801 0.500000
vt 0.848633 0.486328
vt 0.820801 0.500000
vt 0.822266 0.484375
vt 0.788574 0.500000
vt 0.896973 0.488281
vt 0.897461 0.478027
vt 0.873047 0.487793
vt 0.872637 0.507226
vt 0.862417 0.500000
vt 0.847656 0.500000
vt 0.873047 0.512451
vt 0.895996 0.500000
vt 0.896973 0.488281
vt 0.872070 0.500000
vt 0.930714 0.518924
vt 0.897461 0.522217
vt 0.850586 0.526855
vt 0.848633 0.513672
vt 0.825684 0.531006
vt 0.940430 0.512695
vt 0.896973 0.511719
vt 0.943848 0.521729
vt 0.820801 0.500000
vt 0.822266 0.515869
vt 0.798340 0.541016
vt 0.787598 0.522705
vt 0.788574 0.550293
vt 0.753906 0.500000
vt 0.741699 0.500000
vt 0.757813 0.533691
vt 0.710050 0.550797
vt 0.788574 0.557881
vt 0.751051 0.519554
vt 0.730469 0.476074
vt 0.717773 0.483398
vt 0.741699 0.500000
vt 0.717773 0.483398
vt 0.730469 0.476074
vt 0.700195 0.481934
vt 0.700195 0.461914
vt 0.700195 0.481934
vt 0.730469 0.476074
vt 0.717773 0.483398
vt 0.700195 0.481934
vt 0.723145 0.500000
vt 0.678511 0.448479
vt 0.678598 0.489184
vt 0.699219 0.500000
vt 0.723145 0.500000
vt 0.700195 0.481934
vt 0.679688 0.480469
vt 0.659180 0.478516
vt 0.677246 0.500000
vt 0.700195 0.518311
vt 0.723145 0.500000
vt 0.717773 0.516602
vt 0.741699 0.500000
vt 0.675062 0.552598
vt 0.678598 0.510951
vt 0.659180 0.521729
vt 0.627441 0.522461
vt 0.612651 0.557245
vt 0.659478 0.672474
vt 0.577007 0.616750
vt 0.761922 0.655581
vt 0.704590 0.627441
vt 0.710938 0.666992
vt 0.738770 0.668457
vt 0.797852 0.763062
vt 0.775391 0.762939
vt 0.792969 0.794434
vt 0.792969 0.794434
vt 0.800334 0.733460
vt 0.752930 0.804199
vt 0.767578 0.809692
vt 0.752441 0.795532
vt 0.765137 0.832642
vt 0.767578 0.809692
vt 0.754395 0.823853
vt 0.743234 0.827444
vt 0.763697 0.909190
vt 0.773438 0.860962
vt 0.773926 0.910217
vt 0.765137 0.909180
vt 0.756348 0.909241
vt 0.765625 0.923279
vt 0.767090 0.934875
vt 0.775879 0.931396
vt 0.765625 0.923279
vt 0.776855 0.937958
vt 0.767578 0.942078
vt 0.779297 0.943756
vt 0.757813 0.927124
vt 0.750977 0.928833
vt 0.758301 0.938629
vt 0.740723 0.860474
vt 0.753418 0.859253
vt 0.738281 0.822998
vt 0.740234 0.913879
vt 0.743652 0.929321
vt 0.747559 0.911011
vt 0.740610 0.872779
vt 0.730469 0.862793
vt 0.731934 0.916687
vt 0.718262 0.865112
vt 0.731934 0.916687
vt 0.730469 0.862793
vt 0.719238 0.796387
vt 0.696289 0.797729
vt 0.723145 0.812988
vt 0.702637 0.815796
vt 0.723145 0.812988
vt 0.696289 0.797729
vt 0.706074 0.734969
vt 0.679688 0.752319
vt 0.693077 0.794946
vt 0.632324 0.735352
vt 0.604980 0.706787
vt 0.622455 0.765437
vt 0.642090 0.775391
vt 0.676393 0.796863
vt 0.628791 0.791767
vt 0.659668 0.810913
vt 0.646973 0.827026
vt 0.667969 0.830566
vt 0.667969 0.830566
vt 0.687012 0.820313
vt 0.659668 0.810913
vt 0.687500 0.862183
vt 0.670898 0.864014
vt 0.694336 0.873779
vt 0.683105 0.879272
vt 0.694336 0.873779
vt 0.670898 0.864014
vt 0.701172 0.855225
vt 0.687500 0.862183
vt 0.707031 0.868286
vt 0.683105 0.879272
vt 0.700684 0.924500
vt 0.694336 0.873779
vt 0.724609 0.932617
vt 0.735352 0.928955
vt 0.722168 0.920288
vt 0.736328 0.940002
vt 0.746582 0.941101
vt 0.735352 0.928955
vt 0.726563 0.940735
vt 0.736328 0.940002
vt 0.724609 0.932617
vt 0.716309 0.941895
vt 0.714844 0.934326
vt 0.706055 0.943695
vt 0.716797 0.949341
vt 0.728027 0.948822
vt 0.716309 0.941895
vt 0.736328 0.940002
vt 0.726563 0.940735
vt 0.737305 0.948181
vt 0.716797 0.949341
vt 0.706543 0.949890
vt 0.717773 0.958801
vt 0.717773 0.958801
vt 0.729004 0.959290
vt 0.716797 0.949341
vt 0.706055 0.956177
vt 0.717773 0.958801
vt 0.706543 0.949890
vt 0.706055 0.956177
vt 0.705078 0.960846
vt 0.717773 0.958801
vt 0.737305 0.948181
vt 0.749023 0.948486
vt 0.736328 0.940002
vt 0.718262 0.962006
vt 0.705078 0.960846
vt 0.719238 0.972748
vt 0.721680 0.982132
vt 0.715332 0.979660
vt 0.721680 0.987160
vt 0.727051 0.973480
vt 0.719238 0.972748
vt 0.723633 0.982315
vt 0.723633 0.982315
vt 0.723633 0.987190
vt 0.729492 0.980682
vt 0.730957 0.985596
vt 0.729492 0.980682
vt 0.723633 0.987190
vt 0.739746 0.962952
vt 0.735352 0.972809
vt 0.743652 0.978409
vt 0.748047 0.963379
vt 0.739746 0.962952
vt 0.750977 0.973083
vt 0.760742 0.967773
vt 0.768555 0.964996
vt 0.757813 0.960541
vt 0.765625 0.957550
vt 0.757813 0.960541
vt 0.768555 0.964996
vt 0.757813 0.960541
vt 0.765625 0.957550
vt 0.758301 0.953247
vt 0.749023 0.948486
vt 0.753418 0.951385
vt 0.755859 0.946228
vt 0.753906 0.952515
vt 0.754395 0.952057
vt 0.755311 0.951682
vt 0.758301 0.953247
vt 0.754395 0.952057
vt 0.749512 0.955933
vt 0.779297 0.943756
vt 0.769531 0.948151
vt 0.782715 0.947998
vt 0.759277 0.944916
vt 0.755859 0.946228
vt 0.761230 0.951813
vt 0.758301 0.938629
vt 0.754395 0.940033
vt 0.759277 0.944916
vt 0.761230 0.951813
vt 0.763184 0.949097
vt 0.759277 0.944916
vt 0.759277 0.944916
vt 0.762695 0.948456
vt 0.767578 0.942078
vt 0.769531 0.948151
vt 0.763672 0.948914
vt 0.761230 0.951813
vt 0.763184 0.947968
vt 0.762695 0.948456
vt 0.763672 0.948914
vt 0.900879 0.385742
vt 0.910645 0.386719
vt 0.900879 0.382324
vt 0.916016 0.369629
vt 0.906250 0.374512
vt 0.911133 0.380859
vt 0.050720 0.633057
vt 0.060272 0.630371
vt 0.048004 0.626709
vt 0.066040 0.623291
vt 0.056458 0.624756
vt 0.067444 0.629395
vt 0.067444 0.629395
vt 0.074402 0.626465
vt 0.066040 0.623291
vt 0.045807 0.618896
vt 0.052734 0.617920
vt 0.045319 0.610352
vt 0.052734 0.617920
vt 0.061676 0.616455
vt 0.051910 0.611328
vt 0.076233 0.625488
vt 0.076660 0.627686
vt 0.079801 0.618279
vt 0.057818 0.604668
vt 0.052216 0.592041
vt 0.054382 0.603516
vt 0.052216 0.592041
vt 0.060486 0.601563
vt 0.059326 0.585205
vt 0.049438 0.606689
vt 0.054077 0.608154
vt 0.054382 0.603516
vt 0.056183 0.605225
vt 0.054382 0.603516
vt 0.054077 0.608154
vt 0.054047 0.609619
vt 0.051910 0.611328
vt 0.057251 0.608643
vt 0.058838 0.610352
vt 0.057251 0.608643
vt 0.054060 0.609004
vt 0.058838 0.610352
vt 0.051910 0.611328
vt 0.061676 0.616455
vt 0.057251 0.608643
vt 0.058838 0.610352
vt 0.059875 0.605225
vt 0.060486 0.601563
vt 0.059052 0.604248
vt 0.065369 0.607422
vt 0.073425 0.602539
vt 0.077881 0.612305
vt 0.087708 0.592773
vt 0.066123 0.592151
vt 0.077698 0.582520
vt 0.067688 0.593750
vt 0.087708 0.592773
vt 0.069092 0.574219
vt 0.059326 0.585205
vt 0.077698 0.582520
vt 0.094849 0.603271
vt 0.087708 0.592773
vt 0.077881 0.612305
vt 0.087708 0.592773
vt 0.104065 0.580322
vt 0.077698 0.582520
vt 0.093262 0.547363
vt 0.082092 0.560303
vt 0.108459 0.559082
vt 0.123169 0.566162
vt 0.130249 0.566895
vt 0.120789 0.560547
vt 0.120789 0.560547
vt 0.123962 0.556641
vt 0.108459 0.559082
vt 0.117676 0.542480
vt 0.108459 0.559082
vt 0.123962 0.556641
vt 0.132568 0.562744
vt 0.120789 0.560547
vt 0.130249 0.566895
vt 0.143677 0.561035
vt 0.147949 0.546631
vt 0.132012 0.549329
vt 0.132902 0.523826
vt 0.135864 0.539551
vt 0.146118 0.526855
vt 0.147339 0.534668
vt 0.154175 0.537109
vt 0.147339 0.534668
vt 0.147949 0.546631
vt 0.158081 0.524902
vt 0.157959 0.532471
vt 0.155218 0.508915
vt 0.165405 0.536377
vt 0.157959 0.532471
vt 0.160400 0.540771
vt 0.170119 0.536522
vt 0.180664 0.520508
vt 0.143677 0.561035
vt 0.130615 0.576416
vt 0.156250 0.567871
vt 0.156868 0.583280
vt 0.166504 0.552002
vt 0.158261 0.544099
vt 0.172241 0.555664
vt 0.166504 0.552002
vt 0.173096 0.575928
vn -0.2029 0.1825 0.9620
vn -0.8390 0.4096 -0.3581
vn 0.9659 -0.2274 0.1235
vn -0.0006 0.5313 0.8472
vn -0.5420 -0.8378 -0.0661
vn 0.0655 -0.1628 -0.9845
vn -0.1963 -0.2801 0.9397
vn -0.9676 0.0119 0.2524
vn -0.1085 -0.6046 -0.7891
vn -0.0102 0.9734 0.2290
vn 0.1010 0.1945 0.9757
vn 0.1335 0.0138 -0.9909
vn 0.0814 0.9908 -0.1085
vn -0.3140 -0.8003 0.5109
vn 0.5040 -0.6184 -0.6030
vn -0.2840 -0.0343 0.9582
vn -0.5234 -0.4481 0.7248
vn 0.1652 0.5324 -0.8302
vn -0.1311 -0.1370 -0.9819
vn -0.2034 -0.0185 -0.9789
vn -0.7030 -0.7106 -0.0291
vn -0.2513 -0.8743 -0.4153
vn -0.1383 0.7737 0.6182
vn 0.5209 -0.1039 0.8473
vn -0.2907 -0.8496 -0.4401
vn 0.2028 0.6871 0.6977
vn 0.1461 -0.3618 -0.9207
vn -0.4069 -0.7292 -0.5502
vn 0.7870 -0.2984 0.5400
vn 0.6266 0.5960 0.5021
vn 0.5632 0.5400 0.6254
vn -0.8690 -0.0886 -0.4869
vn -0.9916 -0.1192 0.0497
vn 0.3832 0.2176 0.8977
vn -0.1759 0.0902 -0.9803
vn -0.1467 0.0499 -0.9879
vn -0.0810 -0.6107 -0.7877
vn -0.9687 0.0196 0.2474
vn -0.9915 -0.1151 0.0604
vn -0.9916 -0.1150 0.0599
vn -0.5147 -0.0169 0.8572
vn -0.5713 -0.0119 0.8207
vn 0.3444 -0.1996 -0.9174
vn -0.1019 -0.8108 0.5764
vn -0.4261 -0.1680 0.8889
vn -0.9350 0.2241 0.2748
vn 0.9737 -0.1824 0.1363
vn -0.1060 0.0346 0.9938
vn 0.6314 -0.0611 0.7730
vn -0.9673 -0.0356 0.2511
vn 0.0945 -0.5852 -0.8053
vn 0.9876 -0.1277 0.0913
vn 0.3003 -0.0198 -0.9536
vn 0.0596 0.3838 -0.9215
vn 0.7918 -0.5716 0.2154
vn -0.2220 0.0902 0.9709
vn -0.7880 -0.4247 0.4458
vn 0.1024 -0.8922 0.4398
vn -0.2572 -0.7028 -0.6632
vn 0.9274 -0.1866 0.3242
vn 0.1418 0.0984 0.9850
vn 0.5132 0.1781 0.8396
vn 0.8218 -0.3190 0.4721
vn -0.7608 0.6335 0.1406
vn -0.7946 0.6006 0.0893
vn -0.7930 -0.2403 0.5598
vn -0.7835 0.6131 -0.1010
vn 0.3949 -0.0653 -0.9164
vn -0.7216 0.6711 -0.1700
vn 0.0094 0.9731 -0.2302
vn 0.1313 0.1953 -0.9719
vn -0.2269 0.3360 -0.9141
vn -0.5262 -0.0903 -0.8456
vn -0.5515 -0.0139 -0.8340
vn -0.7489 -0.0097 -0.6626
vn -0.8747 -0.4825 -0.0466
vn 0.1008 0.7724 -0.6271
vn -0.3726 0.1430 0.9169
vn -0.3858 0.1623 0.9082
vn -0.6942 -0.3915 -0.6040
vn 0.6409 0.7585 0.1184
vn -0.4113 -0.0890 0.9072
vn 0.0527 -0.1615 0.9855
vn 0.0086 0.9862 -0.1653
vn 0.4406 0.7131 -0.5453
vn 0.2520 0.2780 -0.9269
vn -0.3355 -0.2347 0.9124
vn 0.6741 0.0833 0.7339
vn 0.7026 0.1029 0.7041
vn -0.2981 -0.0357 -0.9539
vn 0.0961 -0.0756 -0.9925
vn -0.8902 -0.0894 0.4466
vn 0.3929 -0.3778 0.8384
vn 0.9777 -0.1941 0.0801
vn -0.6083 0.0659 -0.7909
vn -0.3674 -0.1839 -0.9117
vn 0.1164 -0.3729 -0.9205
vn 0.2437 -0.1819 -0.9526
vn 0.6046 -0.7831 -0.1457
vn 0.5677 -0.7933 0.2198
vn 0.2683 -0.1661 0.9489
vn 0.5249 0.4705 0.7093
vn 0.1725 0.6070 -0.7758
vn 0.3305 0.3176 -0.8888
vn 0.1382 -0.9695 -0.2027
vn 0.9689 -0.0781 -0.2347
vn 0.9755 0.0459 -0.2153
vn 0.1010 0.7286 0.6775
vn 0.1075 -0.6075 0.7870
vn 0.1252 -0.9727 0.1954
vn -0.9897 -0.1170 0.0822
vn 0.3814 -0.6367 0.6702
vn -0.9898 0.1276 0.0638
vn 0.3493 0.7061 0.6160
vn 0.5362 -0.0076 -0.8441
vn 0.1139 0.6457 0.7550
vn -0.3105 0.7340 -0.6040
vn -0.2131 -0.8404 0.4983
vn -0.5058 -0.2217 -0.8337
vn 0.7190 -0.6576 -0.2248
vn 0.3056 0.9464 0.1041
vn 0.0363 -0.9823 0.1838
vn -0.9712 -0.2316 0.0568
vn 0.6241 -0.7624 -0.1711
vn 0.8235 0.5577 0.1039
vn 0.1638 -0.2398 0.9569
vn 0.3971 -0.2143 -0.8924
vn 0.1862 0.3554 0.9160
vn -0.0625 -0.9698 0.2357
vn 0.6366 -0.7689 -0.0594
vn 0.2265 -0.6845 -0.6929
vn 0.0482 -0.5872 0.8080
vn -0.0183 0.9709 0.2388
vn 0.1698 -0.9435 0.2845
vn -0.9965 -0.0404 0.0727
vn -0.6387 -0.4429 -0.6292
vn 0.9734 0.0471 0.2242
vn -0.9906 -0.0092 -0.1363
vn -0.2549 -0.3485 -0.9020
vn -0.2018 -0.8435 -0.4979
vn 0.2912 0.7947 -0.5325
vn 0.2295 -0.2163 0.9490
vn 0.4617 -0.5831 -0.6684
vn 0.2198 -0.3804 0.8983
vn -0.9647 -0.1399 -0.2233
vn 0.1473 0.1059 0.9834
vn 0.1200 0.3165 -0.9410
vn 0.0263 -0.9996 0.0102
vn 0.9727 -0.0277 0.2305
vn -0.1413 -0.4245 0.8943
vn 0.0848 -0.0738 0.9937
vn 0.2293 -0.4918 -0.8400
vn -0.3699 0.0090 -0.9290
vn 0.2706 0.0522 0.9613
vn -0.1653 0.2696 0.9487
vn 0.3860 0.2412 -0.8904
vn 0.3558 -0.1102 -0.9280
vn -0.1035 0.9946 -0.0048
vn -0.3544 0.8420 0.4068
vn 0.3748 -0.1120 -0.9203
vn -0.3595 -0.0989 -0.9279
vn 0.7480 -0.4327 -0.5032
vn 0.0832 0.2229 -0.9713
vn -0.2249 -0.8419 0.4905
vn 0.0749 -0.3692 0.9263
vn 0.3837 -0.4819 0.7877
vn 0.3823 -0.1481 -0.9121
vn 0.6056 0.6645 -0.4378
vn 0.5247 0.5665 -0.6355
vn 0.5069 0.5165 -0.6901
vn 0.1625 -0.9594 -0.2307
vn -0.9903 -0.0687 0.1206
vn 0.0898 -0.1808 0.9794
vn 0.2865 0.7708 -0.5690
vn -0.3560 0.8507 -0.3868
vn 0.1555 0.5031 0.8501
vn -0.8741 -0.3301 -0.3564
vn -0.0599 0.1744 -0.9828
usemtl Default_OBJ
s off
f 2/1/1 3/2/1 4/3/1
f 5/4/2 6/5/2 7/6/2
f 24/7/3 8/8/3 17/9/3
f 3/10/4 26/11/4 61/12/4
f 17/13/5 13/14/5 24/15/5
f 14/16/6 15/17/6 16/18/6
f 23/19/7 24/20/7 25/21/7
f 29/22/8 15/23/8 30/24/8
f 34/25/9 35/26/9 36/27/9
f 37/28/10 38/29/10 39/30/10
f 38/31/11 40/32/11 39/33/11
f 43/34/12 36/35/12 56/36/12
f 37/37/13 26/38/13 19/39/13
f 4/40/14 1/41/14 48/42/14
f 54/43/15 1/44/15 55/45/15
f 12/46/16 60/47/16 61/48/16
f 47/49/17 11/50/17 63/51/17
f 64/52/18 87/53/18 19/54/18
f 54/55/19 64/56/19 46/57/19
f 44/58/20 31/59/20 33/60/20
f 23/61/21 57/62/21 58/63/21
f 54/64/22 68/65/22 1/66/22
f 65/67/23 63/68/23 11/69/23
f 15/70/24 42/71/24 30/72/24
f 18/73/25 13/74/25 17/75/25
f 3/76/26 65/77/26 27/78/26
f 56/79/27 36/80/27 49/81/27
f 11/82/28 22/83/28 43/84/28
f 41/85/29 9/86/29 49/87/29
f 51/88/30 71/89/30 21/90/30
f 72/91/31 21/92/31 71/93/31
f 44/94/32 68/95/32 46/96/32
f 79/97/33 25/98/33 74/99/33
f 50/100/34 65/101/34 2/102/34
f 25/103/35 69/104/35 29/105/35
f 29/106/36 69/104/36 16/107/36
f 18/108/37 76/109/37 55/110/37
f 25/103/38 29/105/38 30/111/38
f 74/99/39 25/98/39 75/112/39
f 25/98/40 30/113/40 75/112/40
f 38/114/41 75/112/41 30/113/41
f 38/114/42 30/113/42 40/115/42
f 45/116/43 31/117/43 46/118/43
f 75/112/44 77/119/44 74/120/44
f 42/121/45 40/122/45 30/123/45
f 78/124/46 77/119/46 75/112/46
f 31/125/47 45/126/47 32/127/47
f 68/128/48 44/129/48 62/130/48
f 80/131/49 74/132/49 77/133/49
f 77/133/50 78/134/50 80/131/50
f 68/135/51 54/136/51 46/137/51
f 81/138/52 82/139/52 83/140/52
f 80/141/53 78/134/53 74/142/53
f 70/143/54 64/144/54 19/145/54
f 34/146/55 20/147/55 28/148/55
f 32/149/56 62/130/56 44/150/56
f 57/151/57 23/152/57 25/153/57
f 13/154/58 1/155/58 60/156/58
f 84/157/59 74/158/59 78/159/59
f 9/160/60 50/161/60 10/162/60
f 61/163/61 60/164/61 4/165/61
f 20/166/62 21/167/62 28/168/62
f 9/169/63 41/170/63 50/171/63
f 38/172/64 37/173/64 75/112/64
f 37/174/65 78/175/65 75/176/65
f 33/177/66 32/178/66 44/179/66
f 37/174/67 84/180/67 78/175/67
f 10/181/68 73/182/68 9/183/68
f 85/184/69 84/157/69 37/185/69
f 37/186/70 19/187/70 85/184/70
f 85/184/71 19/188/71 86/189/71
f 87/190/72 86/189/72 19/188/72
f 84/157/73 85/184/73 79/191/73
f 85/192/74 86/189/74 6/193/74
f 85/192/75 6/193/75 79/191/75
f 5/194/76 79/191/76 6/193/76
f 70/195/77 19/196/77 27/197/77
f 7/6/78 89/198/78 88/199/78
f 88/199/79 5/4/79 7/6/79
f 57/200/80 79/201/80 5/202/80
f 21/203/81 20/204/81 52/205/81
f 7/206/82 66/207/82 89/208/82
f 67/209/83 89/208/83 66/207/83
f 59/210/84 88/211/84 17/212/84
f 70/213/85 27/214/85 56/215/85
f 45/216/86 70/217/86 56/218/86
f 90/219/87 10/220/87 2/221/87
f 90/222/88 53/223/88 10/224/88
f 41/225/89 65/226/89 50/227/89
f 66/228/90 7/206/90 91/229/90
f 66/228/91 91/229/91 67/230/91
f 90/231/92 2/232/92 48/233/92
f 35/234/93 41/235/93 49/236/93
f 62/237/94 32/238/94 45/239/94
f 6/240/95 86/241/95 7/6/95
f 91/242/96 7/6/96 86/241/96
f 91/243/97 86/189/97 18/244/97
f 18/244/98 86/189/98 87/190/98
f 91/243/99 18/244/99 17/245/99
f 89/246/100 91/247/100 17/245/100
f 17/245/101 88/248/101 89/246/101
f 21/249/102 72/250/102 47/251/102
f 27/252/103 11/253/103 56/254/103
f 45/255/104 46/256/104 70/257/104
f 55/258/105 1/259/105 13/260/105
f 45/261/106 56/262/106 49/263/106
f 89/264/107 67/265/107 91/266/107
f 3/267/108 27/268/108 26/269/108
f 23/270/109 8/271/109 24/272/109
f 49/273/110 9/274/110 48/275/110
f 73/276/111 90/277/111 48/278/111
f 60/279/112 1/280/112 4/281/112
f 72/282/113 92/283/113 71/284/113
f 47/285/114 72/286/114 51/287/114
f 53/288/115 73/289/115 10/290/115
f 27/291/116 65/292/116 11/293/116
f 43/294/117 56/295/117 11/296/117
f 12/297/118 13/298/118 60/299/118
f 44/300/119 46/301/119 31/302/119
f 35/303/120 49/304/120 36/305/120
f 88/306/121 59/307/121 5/308/121
f 34/309/122 28/310/122 35/311/122
f 90/312/123 73/313/123 53/314/123
f 16/315/124 24/316/124 42/317/124
f 21/318/125 52/319/125 51/320/125
f 12/321/126 61/322/126 40/323/126
f 24/324/127 16/325/127 69/326/127
f 3/327/128 2/328/128 65/329/128
f 23/330/129 58/331/129 8/332/129
f 42/333/130 24/334/130 12/335/130
f 17/336/131 8/337/131 59/338/131
f 48/339/132 2/340/132 4/341/132
f 26/342/133 37/343/133 39/344/133
f 49/345/134 48/346/134 1/347/134
f 79/348/135 57/349/135 25/350/135
f 5/351/136 58/352/136 57/353/136
f 16/354/137 42/355/137 14/356/137
f 74/357/138 84/358/138 79/359/138
f 58/360/139 5/361/139 59/362/139
f 18/363/140 55/364/140 13/365/140
f 69/366/141 25/367/141 24/368/141
f 50/369/142 2/370/142 10/371/142
f 8/372/143 58/373/143 59/374/143
f 63/375/144 21/376/144 47/377/144
f 71/378/145 51/379/145 72/380/145
f 4/381/146 3/382/146 61/383/146
f 70/384/147 46/385/147 64/386/147
f 68/387/148 62/388/148 49/389/148
f 31/390/149 32/391/149 33/392/149
f 63/393/150 35/394/150 28/395/150
f 15/396/151 14/397/151 42/398/151
f 54/399/152 55/400/152 76/401/152
f 18/402/153 87/403/153 76/404/153
f 63/405/154 28/406/154 21/407/154
f 61/408/155 39/409/155 40/410/155
f 20/411/156 34/412/156 36/413/156
f 20/411/157 36/413/157 52/414/157
f 26/415/158 27/416/158 19/417/158
f 51/418/159 11/419/159 47/420/159
f 54/421/160 76/422/160 64/423/160
f 29/424/161 16/425/161 15/426/161
f 49/427/162 62/428/162 45/429/162
f 87/430/163 64/431/163 76/432/163
f 12/433/164 24/434/164 13/435/164
f 42/436/165 12/437/165 40/438/165
f 35/439/166 63/440/166 41/441/166
f 36/442/167 22/443/167 52/444/167
f 51/445/168 52/446/168 81/447/168
f 82/448/169 81/447/169 52/446/169
f 52/446/170 22/443/170 82/448/170
f 49/449/171 1/450/171 68/451/171
f 81/452/172 82/453/172 51/454/172
f 63/455/173 65/456/173 41/457/173
f 22/458/174 51/454/174 82/453/174
f 51/454/175 22/458/175 11/459/175
f 26/460/176 39/461/176 61/462/176
f 36/463/177 43/464/177 22/465/177
f 48/466/178 9/467/178 73/468/178
