# Blender v2.79 (sub 0) OBJ File: ''
# www.blender.org
mtllib cow_SMALLER.mtl
o cow
v 328.311646 381.625580 58.359840
v 406.938538 773.922668 132.731659
v -382.428711 456.501648 -101.668762
v -296.058167 282.656006 -6.266161
v 471.940277 389.559113 9.727993
v 379.917480 88.655899 94.096329
v 557.220825 858.856323 11.234139
v 970.672424 632.658020 35.518242
v 740.175842 841.801880 -90.611900
v -150.882614 381.531433 74.411606
v -346.839478 410.885742 48.814091
v -299.974396 507.386719 184.344788
v 384.618500 83.002884 -83.396782
v 876.750671 754.919312 -64.025047
v -399.408813 851.146240 115.872765
v -102.204292 826.794678 159.890610
v 557.629761 597.566895 59.694820
v -401.777130 107.203690 82.648911
v 451.249878 535.457092 -191.124832
v 738.124268 838.451721 116.165367
v 420.729980 535.346863 207.829559
v 785.269348 918.196228 16.205374
v 302.258545 422.669861 -119.626228
v 451.092834 741.227661 -131.621994
v 110.322380 459.661377 199.181839
v -368.652527 40.224918 -101.807968
v 778.688538 882.132385 67.226402
v 777.102478 859.240906 88.418785
v -410.286957 685.791870 -5.011549
v 42.520100 522.447388 -232.381958
v -474.075592 565.455322 -34.669308
v 780.265686 882.132385 -45.456470
v 779.270264 859.242493 -66.681801
v 789.859192 903.710693 -119.031204
v -341.729187 835.780518 -163.244781
v -207.183212 421.067352 -88.784279
v -330.834167 378.481995 -162.822067
v 786.226929 903.712402 141.051315
vt 0.746582 0.710205
vt 0.738770 0.668457
vt 0.717773 0.706787
vt 0.752441 0.795532
vt 0.735352 0.796875
vt 0.752930 0.804199
vt 0.841309 0.611084
vt 0.841797 0.604736
vt 0.824707 0.596436
vt 0.833496 0.555664
vt 0.826660 0.547607
vt 0.822754 0.563477
vt 0.845215 0.555420
vt 0.840332 0.546631
vt 0.833496 0.555664
vt 0.852539 0.604492
vt 0.856445 0.611328
vt 0.862305 0.600098
vt 0.863770 0.590576
vt 0.855957 0.578369
vt 0.862305 0.600098
vt 0.855957 0.578369
vt 0.863770 0.590576
vt 0.862305 0.580078
vt 0.940918 0.618896
vt 0.922852 0.619629
vt 0.933594 0.629639
vt 0.923828 0.555664
vt 0.940430 0.554688
vt 0.923340 0.550049
vt 0.814941 0.430664
vt 0.817871 0.442383
vt 0.819336 0.424316
vt 0.840332 0.453613
vt 0.856445 0.450684
vt 0.845215 0.444824
vt 0.862305 0.419922
vt 0.858887 0.440430
vt 0.867188 0.421875
vt 0.867188 0.421875
vt 0.875000 0.407227
vt 0.862305 0.419922
vt 0.889160 0.438965
vt 0.874512 0.440430
vt 0.888184 0.451660
vt 0.801270 0.324707
vt 0.750036 0.331185
vt 0.795594 0.366787
vt 0.792969 0.205566
vt 0.787109 0.185547
vt 0.769531 0.208008
vt 0.712375 0.394399
vt 0.677610 0.331468
vt 0.820801 0.500000
vt 0.838854 0.485604
vt 0.788574 0.500000
vt 0.881682 0.500185
vt 0.897461 0.478027
vt 0.873047 0.487793
vt 0.895996 0.500000
vt 0.896973 0.488281
vt 0.872070 0.500000
vt 0.753906 0.500000
vt 0.741699 0.500000
vt 0.757813 0.533691
vt 0.677395 0.553730
vt 0.788574 0.557881
vt 0.751051 0.519554
vt 0.730469 0.476074
vt 0.717773 0.483398
vt 0.741699 0.500000
vt 0.717773 0.483398
vt 0.700195 0.481934
vt 0.723145 0.500000
vt 0.699487 0.495047
vt 0.700195 0.518311
vt 0.723145 0.500000
vt 0.704590 0.627441
vt 0.654755 0.704567
vt 0.746805 0.663988
vt 0.797852 0.763062
vt 0.775391 0.762939
vt 0.792969 0.794434
vt 0.743234 0.827444
vt 0.767150 0.909537
vt 0.773438 0.860962
vt 0.740234 0.913879
vt 0.743652 0.929321
vt 0.747559 0.911011
vt 0.737682 0.887600
vt 0.730469 0.862793
vt 0.718262 0.865112
vt 0.731934 0.916687
vt 0.730469 0.862793
vt 0.702637 0.815796
vt 0.723145 0.812988
vt 0.696289 0.797729
vt 0.624545 0.770189
vt 0.659668 0.810913
vt 0.646973 0.827026
vt 0.667969 0.830566
vt 0.683105 0.879272
vt 0.694336 0.873779
vt 0.670898 0.864014
vt 0.701172 0.855225
vt 0.687500 0.862183
vt 0.707031 0.868286
vt 0.683105 0.879272
vt 0.700684 0.924500
vt 0.694336 0.873779
vt 0.724609 0.932617
vt 0.735352 0.928955
vt 0.722168 0.920288
vt 0.736328 0.940002
vt 0.726563 0.940735
vt 0.737305 0.948181
vt 0.716797 0.949341
vt 0.706543 0.949890
vt 0.717773 0.958801
vt 0.706055 0.956177
vt 0.705078 0.960846
vt 0.717773 0.958801
vt 0.737305 0.948181
vt 0.749023 0.948486
vt 0.736328 0.940002
vt 0.721680 0.982132
vt 0.715332 0.979660
vt 0.721680 0.987160
vt 0.739746 0.962952
vt 0.735352 0.972809
vt 0.743652 0.978409
vt 0.748047 0.963379
vt 0.739746 0.962952
vt 0.750977 0.973083
vt 0.753906 0.952515
vt 0.754395 0.952057
vt 0.755311 0.951682
vt 0.779297 0.943756
vt 0.769531 0.948151
vt 0.782715 0.947998
vt 0.761230 0.951813
vt 0.763184 0.949097
vt 0.759277 0.944916
vt 0.763184 0.947968
vt 0.762695 0.948456
vt 0.763672 0.948914
vt 0.900879 0.385742
vt 0.910645 0.386719
vt 0.900879 0.382324
vt 0.916016 0.369629
vt 0.906250 0.374512
vt 0.911133 0.380859
vt 0.052734 0.617920
vt 0.061676 0.616455
vt 0.051910 0.611328
vt 0.076233 0.625488
vt 0.076660 0.627686
vt 0.079801 0.618279
vt 0.056183 0.605225
vt 0.054382 0.603516
vt 0.054077 0.608154
vt 0.058838 0.610352
vt 0.051910 0.611328
vt 0.061676 0.616455
vt 0.077698 0.582520
vt 0.067688 0.593750
vt 0.087708 0.592773
vt 0.069092 0.574219
vt 0.059326 0.585205
vt 0.077698 0.582520
vt 0.094849 0.603271
vt 0.087708 0.592773
vt 0.077881 0.612305
vt 0.123169 0.566162
vt 0.130249 0.566895
vt 0.120789 0.560547
vt 0.132902 0.523826
vt 0.135864 0.539551
vt 0.146118 0.526855
vt 0.147339 0.534668
vt 0.147949 0.546631
vt 0.154175 0.537109
vt 0.147339 0.534668
vt 0.147949 0.546631
vt 0.158081 0.524902
vt 0.157959 0.532471
vt 0.155218 0.508915
vt 0.165405 0.536377
vt 0.157959 0.532471
vt 0.160400 0.540771
vt 0.170119 0.536522
vt 0.180664 0.520508
vt 0.172241 0.555664
vt 0.166504 0.552002
vt 0.173096 0.575928
vn -0.0981 0.2936 0.9509
vn 0.6559 -0.6500 -0.3838
vn -0.1815 -0.4479 0.8755
vn -0.9615 0.1955 0.1933
vn 0.0078 -0.6278 -0.7784
vn -0.1321 0.1567 0.9788
vn 0.1583 -0.0529 -0.9860
vn 0.0870 0.9955 -0.0368
vn -0.0253 0.0919 0.9954
vn -0.5572 0.2303 -0.7978
vn -0.1514 0.8883 0.4337
vn 0.1576 -0.3602 -0.9195
vn 0.7335 0.5069 0.4529
vn 0.6931 0.4632 0.5522
vn -0.3146 -0.1758 -0.9328
vn -0.9668 -0.1896 0.1712
vn -0.0348 -0.7869 -0.6161
vn -0.9404 -0.1581 0.3009
vn -0.8871 -0.1712 0.4287
vn -0.6129 -0.0646 0.7875
vn 0.6318 -0.4841 0.6053
vn 0.9876 -0.1277 0.0913
vn 0.0171 -0.8631 0.5047
vn 0.8875 -0.4582 -0.0498
vn 0.9136 -0.1767 0.3662
vn 0.7460 -0.4296 0.5090
vn -0.9139 0.3485 -0.2080
vn -0.7760 -0.0191 -0.6304
vn 0.1135 0.7240 -0.6804
vn -0.0739 -0.0028 0.9973
vn 0.6515 0.2618 0.7120
vn -0.7799 -0.0256 -0.6254
vn -0.8131 -0.0728 0.5776
vn 0.9502 -0.1974 -0.2412
vn 0.5108 0.0114 -0.8596
vn 0.4862 0.2178 0.8462
vn -0.0073 -0.9746 -0.2237
vn 0.9961 0.0252 -0.0843
vn 0.5541 -0.2074 -0.8062
vn 0.1124 0.7438 0.6589
vn -0.9898 0.1276 0.0638
vn 0.0401 0.7718 0.6346
vn -0.2134 0.8260 -0.5216
vn -0.1088 -0.7240 0.6812
vn 0.4937 -0.3901 0.7773
vn 0.1093 -0.1296 -0.9855
vn 0.8353 0.5334 -0.1330
vn 0.3750 -0.3168 0.8712
vn 0.1612 -0.7361 0.6574
vn -0.9112 -0.4012 0.0939
vn -0.9303 0.0406 -0.3645
vn -0.0361 -0.4945 -0.8684
vn -0.0110 -0.9727 -0.2319
vn -0.9647 -0.1399 -0.2233
vn 0.0677 0.1448 0.9871
vn 0.0801 -0.2840 0.9555
vn -0.3889 -0.2836 -0.8765
vn -0.0362 0.9979 0.0546
vn -0.2227 0.8106 0.5416
vn 0.3292 -0.1886 -0.9252
vn 0.0737 0.3003 -0.9510
vn 0.7004 0.5899 -0.4018
vn 0.5894 0.5353 -0.6050
vn 0.3798 0.3329 -0.8631
vn -0.0212 -0.9749 -0.2217
vn -0.9903 -0.0687 0.1206
vn 0.1062 -0.3017 0.9475
vn -0.0092 0.8152 -0.5791
vn -0.2062 0.8350 -0.5102
vn -0.3078 -0.1684 -0.9364
usemtl None
s off
f 21/1/1 2/2/1 25/3/1
f 10/4/2 4/5/2 36/6/2
f 4/7/3 10/8/3 11/9/3
f 11/10/4 18/11/4 12/12/4
f 8/13/5 17/14/5 14/15/5
f 15/16/6 12/17/6 16/18/6
f 9/19/7 14/20/7 24/21/7
f 15/22/8 16/23/8 35/24/8
f 12/25/9 25/26/9 16/27/9
f 23/28/10 24/29/10 19/30/10
f 2/31/11 20/32/11 7/33/11
f 24/34/12 14/35/12 5/36/12
f 22/37/13 27/38/13 8/39/13
f 28/40/14 8/41/14 27/42/14
f 13/43/15 23/44/15 19/45/15
f 3/46/16 11/47/16 29/48/16
f 36/49/17 30/50/17 23/51/17
f 29/48/18 11/47/18 15/52/18
f 11/47/19 12/53/19 15/52/19
f 23/54/20 13/55/20 5/56/20
f 31/57/21 29/58/21 15/59/21
f 32/60/22 33/61/22 34/62/22
f 10/63/23 1/64/23 25/65/23
f 35/66/24 29/67/24 31/68/24
f 5/69/25 21/70/25 6/71/25
f 5/72/26 17/73/26 21/74/26
f 15/75/27 35/76/27 31/77/27
f 35/78/28 37/79/28 3/80/28
f 24/81/29 35/82/29 7/83/29
f 3/84/30 26/85/30 36/86/30
f 17/87/31 2/88/31 21/89/31
f 26/90/32 3/84/32 37/91/32
f 6/92/33 21/93/33 1/94/33
f 5/95/34 13/96/34 19/97/34
f 36/98/35 37/79/35 35/66/35
f 8/99/36 28/100/36 20/101/36
f 23/102/37 1/103/37 10/104/37
f 19/105/38 24/106/38 5/107/38
f 36/108/39 26/109/39 37/110/39
f 2/111/40 7/112/40 16/113/40
f 28/114/41 38/115/41 27/116/41
f 20/117/42 28/118/42 22/119/42
f 9/120/43 24/121/43 7/122/43
f 12/123/44 10/124/44 25/125/44
f 17/126/45 5/127/45 14/128/45
f 11/129/46 10/130/46 18/131/46
f 8/132/47 14/133/47 22/134/47
f 18/135/48 10/136/48 12/137/48
f 1/138/49 21/139/49 25/140/49
f 3/141/50 4/142/50 11/143/50
f 29/144/51 35/145/51 3/146/51
f 4/147/52 3/148/52 36/149/52
f 36/150/53 23/151/53 10/152/53
f 27/153/54 22/154/54 28/155/54
f 25/156/55 2/157/55 16/158/55
f 20/159/56 17/160/56 8/161/56
f 36/162/57 35/163/57 30/164/57
f 16/165/58 7/166/58 35/167/58
f 22/168/59 7/169/59 20/170/59
f 23/171/60 30/172/60 24/173/60
f 35/174/61 24/175/61 30/176/61
f 22/177/62 14/178/62 32/179/62
f 33/180/63 32/179/63 14/178/63
f 14/178/64 9/181/64 33/180/64
f 5/182/65 1/183/65 23/184/65
f 32/185/66 33/186/66 22/187/66
f 20/188/67 2/189/67 17/190/67
f 9/191/68 22/187/68 33/186/68
f 22/187/69 9/191/69 7/192/69
f 1/193/70 5/194/70 6/195/70
