# Blender v2.79 (sub 0) OBJ File: ''
# www.blender.org
mtllib deer_SMALLER.mtl
o 11512_WhiteTailedDeer_V2
v 16.260550 18.861017 64.799271
v 10.763339 -9.773204 41.969330
v 10.613320 -10.914487 1.741251
v 5.080514 -13.908708 53.733849
v -9.617811 30.773695 57.849236
v 4.785819 52.997665 58.674370
v 20.501015 44.134457 63.123444
v 7.505768 63.671997 79.306473
v -3.846852 67.085159 74.848633
v 11.964183 44.223473 92.659912
v 2.638201 -52.145367 98.272430
v 15.647717 -19.617067 85.334190
v 7.396678 -43.937126 121.419159
v 10.386827 -46.074497 110.277786
v -0.695497 -70.249977 96.924889
v 23.137552 -38.887909 123.516197
v 15.174375 -43.823044 122.888229
v 9.281062 -47.803780 120.224884
v 29.423870 -51.295792 138.478775
v 22.500174 -42.946304 145.269241
v 14.841070 -41.905998 133.467728
v 11.513276 57.291622 36.656456
v 12.354583 56.149227 10.620485
v 14.953906 60.496910 37.482502
v 13.482512 60.708431 0.323517
v 10.881551 3.759540 50.439877
v 10.207282 63.594597 41.980236
v 6.140129 -3.306491 5.277152
v 2.513196 -16.868458 99.802597
v -11.756867 2.156885 43.628750
v -8.465608 -5.105043 1.483622
v -5.600055 0.057732 48.030155
v -19.064590 34.448071 71.458565
v -5.376265 63.876236 92.963989
v -15.849545 -18.783800 84.202423
v -10.407475 -46.025112 109.623619
v -7.310014 -43.051891 120.138229
v -22.908276 -38.659428 123.025482
v -9.887070 -45.558315 120.013588
v -24.244715 -42.713211 137.704803
v -29.569468 -51.393673 138.513199
v -6.773305 -46.569057 123.603226
v -5.662358 -46.054276 120.918755
v -13.862783 56.686813 37.550453
v -9.529854 54.040604 57.098820
v -11.732248 65.195587 41.335560
v -11.535975 57.926235 5.888154
v -16.016279 58.353786 0.583539
v -9.009367 -7.756515 21.082979
v -16.077963 -42.456970 133.502838
v -11.952159 -11.266150 49.604862
vt 0.078978 0.260114
vt 0.098252 0.356893
vt 0.055310 0.359867
vt 0.823010 0.278562
vt 0.820040 0.373590
vt 0.788696 0.358431
vt 0.350810 0.519359
vt 0.329351 0.194234
vt 0.426126 0.111257
vt 0.086590 0.490716
vt 0.124362 0.462991
vt 0.220188 0.481285
vt 0.170539 0.298186
vt 0.489320 0.866539
vt 0.443108 0.835188
vt 0.468410 0.798390
vt 0.469494 0.904041
vt 0.429870 0.981980
vt 0.433193 0.903266
vt 0.497489 0.904689
vt 0.475134 0.969547
vt 0.409875 0.918084
vt 0.408067 0.840008
vt 0.427293 0.792640
vt 0.425271 0.827193
vt 0.971468 0.693403
vt 0.948383 0.803935
vt 0.948399 0.676613
vt 0.944591 0.766590
vt 0.940001 0.761990
vt 0.943112 0.746050
vt 0.936166 0.717716
vt 0.926588 0.679875
vt 0.947945 0.373196
vt 0.919412 0.259437
vt 0.950765 0.265981
vt 0.884408 0.268827
vt 0.142770 0.667336
vt 0.231882 0.874654
vt 0.114706 0.666319
vt 0.875015 0.107958
vt 0.614874 0.915107
vt 0.577181 0.973653
vt 0.556119 0.862277
vt 0.705725 0.499401
vt 0.687852 0.479166
vt 0.732299 0.459277
vt 0.780069 0.796739
vt 0.804209 0.656371
vt 0.808802 0.806931
vt 0.548033 0.045670
vt 0.592126 0.112762
vt 0.473507 0.055300
vt 0.688707 0.358655
vt 0.639773 0.361032
vt 0.627895 0.225601
vt 0.544573 0.227901
vt 0.535221 0.484527
vt 0.529985 0.689117
vt 0.468015 0.644929
vt 0.374171 0.689848
vt 0.317165 0.797160
vt 0.279510 0.706807
vt 0.339427 0.815662
vt 0.368108 0.847509
vt 0.319119 0.836936
vt 0.299964 0.880934
vt 0.340056 0.904421
vt 0.311642 0.971320
vt 0.299010 0.914447
vt 0.369027 0.906451
vt 0.380474 0.933010
vt 0.355985 0.979237
vt 0.362134 0.814262
vt 0.385915 0.826318
vt 0.351171 0.827116
vt 0.885176 0.906520
vt 0.904053 0.899036
vt 0.894625 0.947783
vt 0.956432 0.433867
vt 0.954328 0.583008
vt 0.934162 0.530570
vt 0.748280 0.651149
vt 0.798935 0.464431
vt 0.879964 0.655262
vt 0.845383 0.485992
vt 0.867192 0.582121
vt 0.984691 0.440591
vt 0.979254 0.501468
vt 0.929754 0.444487
vt 0.925858 0.484782
vt 0.891980 0.734016
vt 0.666970 0.671886
vt 0.706332 0.900903
vt 0.626734 0.755092
vt 0.418149 0.645686
vt 0.150443 0.868877
vt 0.067409 0.691577
vt 0.212772 0.949830
vt 0.900678 0.424890
vt 0.168650 0.076607
vt 0.124808 0.042660
vt 0.176509 0.046759
vt 0.121130 0.204916
vt 0.205300 0.171046
vt 0.290211 0.079272
vt 0.300590 0.023661
vt 0.363466 0.109446
vt 0.505559 0.708248
vt 0.447193 0.821935
vt 0.821849 0.901921
vt 0.832491 0.956973
vt 0.811005 0.908560
vt 0.979935 0.660779
vt 0.990410 0.737011
vt 0.909658 0.081843
vt 0.114523 0.924885
vt 0.834782 0.097091
vt 0.040796 0.901690
vt 0.230021 0.661479
vt 0.329780 0.639791
vt 0.705870 0.850063
vt 0.677996 0.201720
vt 0.489421 0.048109
vt 0.934680 0.426396
vt 0.732639 0.746067
vt 0.605850 0.682823
vn 0.5882 0.0973 -0.8029
vn 0.2275 0.5489 -0.8044
vn -0.0454 -0.8308 -0.5546
vn -0.3580 0.9284 0.0997
vn 0.0090 0.7107 -0.7035
vn 0.9780 0.2047 -0.0392
vn 0.0853 0.3537 0.9315
vn 0.6874 0.1907 0.7008
vn -0.3111 0.6691 0.6749
vn 0.7795 -0.5998 -0.1807
vn 0.9762 -0.1846 0.1134
vn 0.9296 0.0072 -0.3684
vn -0.1358 0.4755 0.8692
vn 0.9571 -0.2868 -0.0408
vn 0.8532 0.4184 0.3113
vn 0.9887 -0.1121 0.0997
vn 0.0485 0.8201 0.5701
vn 0.2577 -0.8723 0.4155
vn 0.7892 -0.4768 0.3871
vn 0.1002 0.2878 0.9524
vn -0.5515 0.6041 0.5753
vn 0.9692 0.2315 -0.0836
vn -0.3923 -0.8180 -0.4206
vn -0.4063 0.5073 -0.7600
vn 0.1899 -0.4440 -0.8757
vn -0.1732 -0.9256 -0.3367
vn -0.5345 -0.6702 -0.5150
vn -0.9543 -0.2772 0.1117
vn -0.6046 0.5911 -0.5339
vn -0.9939 0.0994 0.0479
vn -0.8782 -0.4712 -0.0822
vn -0.4908 0.0910 -0.8665
vn -0.1110 0.9163 -0.3849
vn -0.2915 0.9364 -0.1956
vn 0.3000 -0.5089 -0.8068
vn -0.9884 -0.0785 -0.1302
vn -0.0028 -0.8608 -0.5089
vn -0.5280 -0.4875 0.6954
vn -0.1806 0.5491 0.8160
vn -0.8539 0.3856 0.3496
vn -0.0398 -0.0028 0.9992
vn -0.7318 -0.5727 0.3693
vn 0.8568 0.1936 -0.4779
vn -0.3939 0.7217 0.5692
vn 0.0476 0.9883 0.1450
vn -0.2851 -0.0203 -0.9583
vn 0.8261 -0.1933 -0.5294
vn 0.0126 -0.0502 -0.9987
vn -0.0872 -0.9866 -0.1377
vn 0.6223 0.7785 0.0811
vn 0.0436 0.1130 -0.9926
usemtl _11512_WhiteTailedDeer_v2default
s 1
f 32/1/1 26/2/2 4/3/3
f 27/4/4 6/5/5 7/6/6
f 29/7/7 10/8/8 34/9/9
f 4/10/3 2/11/10 12/12/11
f 2/11/10 1/13/12 12/12/11
f 29/14/7 13/15/13 14/16/14
f 13/17/13 16/18/15 14/19/14
f 17/20/16 16/21/15 13/17/13
f 17/22/16 14/19/14 16/18/15
f 43/23/17 18/24/18 13/25/13
f 17/26/16 19/27/19 18/28/18
f 20/29/20 17/30/16 21/31/21
f 21/32/21 13/33/13 18/28/18
f 7/34/6 24/35/22 27/36/4
f 7/34/6 22/37/23 24/35/22
f 28/38/24 26/39/2 3/40/25
f 23/41/26 22/37/23 27/4/4
f 51/42/27 35/43/28 30/44/29
f 4/45/3 51/46/27 32/47/1
f 33/48/30 44/49/31 5/50/32
f 6/51/5 45/52/33 9/53/34
f 32/54/1 30/55/29 5/56/32
f 45/52/33 33/57/30 9/53/34
f 33/57/30 34/9/9 9/53/34
f 33/57/30 35/58/28 34/9/9
f 11/59/35 36/60/36 35/58/28
f 29/7/7 35/58/28 36/60/36
f 15/61/37 36/62/36 11/63/35
f 39/64/38 13/65/13 37/66/39
f 13/65/13 29/67/7 37/66/39
f 36/68/36 38/69/40 37/70/39
f 39/71/38 37/72/39 38/73/40
f 42/74/41 18/75/18 43/76/17
f 42/74/41 39/64/38 15/61/37
f 41/77/42 50/78/43 40/79/44
f 39/80/38 41/81/42 40/82/44
f 46/83/45 44/49/31 33/48/30
f 48/84/46 44/49/31 46/83/45
f 46/85/45 47/86/47 48/87/46
f 39/80/38 42/88/41 50/89/43
f 42/90/41 40/82/44 50/91/43
f 44/49/31 47/86/47 45/92/33
f 46/85/45 45/92/33 47/86/47
f 31/93/48 32/94/1 49/95/49
f 36/60/36 37/96/39 29/7/7
f 3/40/25 2/97/10 28/98/24
f 3/40/25 26/39/2 2/97/10
f 1/99/12 2/97/10 26/39/2
f 6/5/5 22/37/23 1/100/12
f 7/34/6 1/100/12 22/37/23
f 6/101/5 5/102/32 45/103/33
f 6/104/5 1/13/12 32/1/1
f 32/1/1 1/13/12 26/2/2
f 7/105/6 6/101/5 8/106/50
f 9/107/34 34/108/9 8/106/50
f 34/108/9 10/8/8 8/106/50
f 7/105/6 8/106/50 10/8/8
f 7/105/6 10/8/8 1/13/12
f 12/12/11 1/13/12 10/8/8
f 10/8/8 29/7/7 12/12/11
f 11/109/35 18/24/18 15/61/37
f 14/16/14 18/24/18 11/109/35
f 14/16/14 17/110/16 18/24/18
f 17/111/16 20/112/20 19/113/19
f 19/27/19 21/31/21 18/28/18
f 19/27/19 20/29/20 21/31/21
f 13/114/13 21/115/21 17/26/16
f 27/36/4 24/35/22 25/116/51
f 22/37/23 6/5/5 27/4/4
f 4/117/3 28/98/24 2/97/10
f 23/41/26 27/4/4 25/118/51
f 23/41/26 24/35/22 22/37/23
f 24/35/22 23/41/26 25/116/51
f 26/119/2 28/98/24 4/117/3
f 11/120/35 4/10/3 12/12/11
f 12/12/11 14/121/14 11/120/35
f 14/121/14 12/12/11 29/7/7
f 31/93/48 30/122/29 32/94/1
f 5/56/32 6/123/5 32/54/1
f 33/57/30 5/56/32 30/55/29
f 9/53/34 8/124/50 6/51/5
f 35/58/28 29/7/7 34/9/9
f 35/58/28 33/57/30 30/55/29
f 35/58/28 51/46/27 4/45/3
f 39/64/38 43/76/17 13/65/13
f 36/68/36 39/71/38 38/73/40
f 36/62/36 15/61/37 39/64/38
f 15/61/37 18/24/18 42/74/41
f 50/89/43 41/81/42 39/80/38
f 39/80/38 40/82/44 43/125/17
f 42/90/41 43/125/17 40/82/44
f 46/83/45 33/48/30 45/126/33
f 48/84/46 47/86/47 44/49/31
f 44/49/31 45/92/33 5/50/32
f 31/127/48 49/95/49 30/44/29
f 51/42/27 49/95/49 32/94/1
f 30/44/29 49/95/49 51/42/27
f 4/45/3 11/59/35 35/58/28
